<svg width="200" height="200" viewBox="0 0 200 200" fill="none" xmlns="http://www.w3.org/2000/svg">
<rect width="200" height="200" rx="50" fill="#EBE5C2"/>
<path d="M48.1233 73.693L66.622 25L31.3338 43.8754L25 86.7325L48.1233 120.562L54.25 91L48.1233 73.693Z" fill="#312000"/>
<path d="M84.7623 79.2154L111.605 26.875L120.955 55.1425L103.163 80.5L84.7623 79.2154Z" fill="#312000"/>
<path d="M172.788 135.79L168.968 139.438V151.474L172 151.75L175 143.815L172.788 135.79Z" fill="#312000"/>
<path fill-rule="evenodd" clip-rule="evenodd" d="M58.8807 92.2037L74.2627 83.997L118.901 86.7325L135.389 98.9514V105.973L163.539 120.562L170.275 130.228L165.952 133.693L153.988 127.766L144.94 133.693L163.539 139.438V151.474L150.771 153.754L135.389 147.097L131.669 152.933L146.548 160.046L165.952 156.25L159.25 169.75H128.125L114.276 175H68.5322L48.1233 146.368L58.8807 92.2037ZM108.25 118.75L68.5322 112.375L85.7239 133.693L108.25 118.75Z" fill="#312000"/>
</svg>
