<svg width="150" height="150" viewBox="0 0 150 150" fill="none" xmlns="http://www.w3.org/2000/svg">
<path d="M23.1233 48.693L41.622 0L6.33378 18.8754L0 61.7325L23.1233 95.5623L29.25 66L23.1233 48.693Z" fill="#EBE5C2"/>
<path d="M59.7623 54.2154L86.6054 1.875L95.9553 30.1425L78.1634 55.5L59.7623 54.2154Z" fill="#EBE5C2"/>
<path d="M147.788 110.79L143.968 114.438V126.474L147 126.75L150 118.815L147.788 110.79Z" fill="#EBE5C2"/>
<path fill-rule="evenodd" clip-rule="evenodd" d="M33.8807 67.2037L49.2627 58.997L93.9008 61.7325L110.389 73.9514V80.9726L138.539 95.5623L145.275 105.228L140.952 108.693L128.988 102.766L119.94 108.693L138.539 114.438V126.474L125.771 128.754L110.389 122.097L106.669 127.933L121.548 135.046L140.952 131.25L134.25 144.75H103.125L89.2761 150H43.5322L23.1233 121.368L33.8807 67.2037ZM83.25 93.75L43.5322 87.375L60.7239 108.693L83.25 93.75Z" fill="#EBE5C2"/>
</svg>
