<svg width="630" height="138" viewBox="0 0 630 138" fill="none" xmlns="http://www.w3.org/2000/svg">
<path d="M0 61.824L5.5552 50.8928H32.256V58.5984L33.8688 59.6736C35.1829 58.4789 36.9749 57.1051 39.2448 55.552C41.6341 53.8795 44.5013 52.3861 47.8464 51.072C51.1915 49.7579 54.9547 49.1008 59.136 49.1008C71.5605 49.1008 80.4608 53.2224 85.8368 61.4656C87.9872 58.4789 91.2128 55.6715 95.5136 53.0432C99.9339 50.2955 106.027 48.9216 113.792 48.9216C124.544 48.9216 132.608 51.968 137.984 58.0608C143.36 64.1536 146.048 72.6955 146.048 83.6864V106.624L149.811 124.544L146.048 135.475H113.792V88.3456C113.792 83.8059 112.777 80.3413 110.746 77.952C108.834 75.4432 105.788 74.1888 101.606 74.1888C98.8587 74.1888 96.4693 75.2043 94.4384 77.2352C92.4075 79.2661 91.392 81.8347 91.392 84.9408V135.475H59.136V88.5248C59.136 83.9851 58.1205 80.5205 56.0896 78.1312C54.1781 75.6224 51.1317 74.368 46.9504 74.368L35.84 77.7728V135.475H3.584V81.536L0 61.824Z" fill="#EBE5C2"/>
<path d="M183.862 45.696L161.104 22.7584L183.862 0L206.62 22.7584L183.862 45.696ZM167.734 135.475V76.16L163.971 61.824L167.555 50.8928H199.99V135.475H167.734Z" fill="#EBE5C2"/>
<path d="M220.238 135.475V79.3856L216.475 61.4656L220.238 50.7136H244.609L248.193 54.8352C248.193 54.8352 249.03 54.3573 250.702 53.4016C252.375 52.3264 254.704 51.3109 257.691 50.3552C260.797 49.3995 264.381 48.9216 268.443 48.9216C270.832 48.9216 273.222 49.1008 275.611 49.4592C278 49.8176 279.852 50.2955 281.166 50.8928L292.814 60.7488L281.166 83.6864L257.512 73.8304L252.136 75.6224V135.475H220.238Z" fill="#EBE5C2"/>
<path d="M321.405 137.267C316.268 137.267 311.489 136.55 307.069 135.117C302.768 133.564 299.304 130.935 296.675 127.232C294.047 123.529 292.733 118.391 292.733 111.821C292.733 105.847 294.226 100.89 297.213 96.9472C300.2 93.0048 304.262 90.0779 309.399 88.1664C314.536 86.2549 320.33 85.2992 326.781 85.2992C332.993 85.2992 337.652 86.016 340.759 87.4496C343.865 88.7637 346.553 90.1376 348.823 91.5712L350.077 90.496C350.077 86.912 349.778 83.9253 349.181 81.536C348.584 79.1467 347.21 77.3547 345.059 76.16C342.909 74.8459 339.564 74.1888 335.024 74.1888C330.604 74.1888 325.885 74.6069 320.867 75.4432C315.969 76.16 311.43 77.1157 307.248 78.3104C303.186 79.3856 300.14 80.4608 298.109 81.536V54.656C301.812 53.3419 307.069 52.1472 313.879 51.072C320.808 49.8773 329.29 49.28 339.325 49.28C350.077 49.28 358.559 50.6539 364.771 53.4016C371.103 56.0299 375.643 59.9125 378.391 65.0496C381.138 70.0672 382.512 76.1003 382.512 83.1488V106.982L386.096 125.082L382.512 135.654H351.869V126.874L350.077 125.978C349.121 126.933 347.449 128.307 345.059 130.099C342.67 131.891 339.504 133.564 335.562 135.117C331.619 136.55 326.9 137.267 321.405 137.267ZM336.637 113.792C339.863 113.792 342.61 113.493 344.88 112.896C347.27 112.299 349.002 111.761 350.077 111.283V107.878C350.077 106.325 348.942 104.832 346.672 103.398C344.522 101.965 341.117 101.248 336.458 101.248C330.007 101.248 326.781 103.518 326.781 108.058C326.781 109.969 327.498 111.403 328.931 112.358C330.365 113.314 332.934 113.792 336.637 113.792Z" fill="#EBE5C2"/>
<path d="M403.984 135.475V81.536L400.4 61.824L405.955 50.8928H432.656V58.5984L434.269 59.6736C435.583 58.4789 437.375 57.1051 439.645 55.552C442.034 53.8795 444.901 52.3861 448.246 51.072C451.591 49.7579 455.355 49.1008 459.536 49.1008C470.288 49.1008 478.352 52.1472 483.728 58.24C489.104 64.3328 491.792 72.8747 491.792 83.8656V106.624L495.555 124.544L491.792 135.475H459.536V88.5248C459.536 83.9851 458.521 80.5205 456.49 78.1312C454.578 75.6224 451.532 74.368 447.35 74.368L436.24 77.7728V135.475H403.984Z" fill="#EBE5C2"/>
<path d="M543.836 137.267C535.712 137.267 529.201 134.878 524.303 130.099C519.405 125.321 516.956 119.287 516.956 112V72.9344H503.874V55.9104L515.164 47.1296L527.887 24.9088H549.032V50.8928H574.12V74.1888H549.032V112.538L574.12 112.358V131.891C574.12 131.891 572.687 132.369 569.82 133.325C567.072 134.161 563.428 134.997 558.888 135.834C554.349 136.789 549.331 137.267 543.836 137.267Z" fill="#EBE5C2"/>
<path d="M606.312 45.696L583.554 22.7584L606.312 0L629.07 22.7584L606.312 45.696ZM590.184 135.475V76.16L586.421 61.824L590.005 50.8928H622.44V135.475H590.184Z" fill="#EBE5C2"/>
</svg>
